<svg xmlns="http://www.w3.org/2000/svg" viewBox="0 0 200 200">
  <style>
    .leaf {fill: #4CAF50;}
    .flower {fill: #FFFFFF;}
    .pot {fill: #795548;}
    .soil {fill: #5D4037;}
  </style>
  <rect class="pot" x="70" y="140" width="60" height="50" rx="5" />
  <rect class="soil" x="70" y="140" width="60" height="10" />
  <ellipse class="flower" cx="100" cy="60" rx="15" ry="20" />
  <path class="leaf" d="M80,140 C60,110 70,80 90,70 C90,100 100,120 100,140 Z" />
  <path class="leaf" d="M120,140 C140,110 130,80 110,70 C110,100 100,120 100,140 Z" />
  <path class="leaf" d="M100,140 C80,110 70,80 60,70 C80,90 90,120 100,140 Z" />
  <path class="leaf" d="M100,140 C120,110 130,80 140,70 C120,90 110,120 100,140 Z" />
</svg>