<svg xmlns="http://www.w3.org/2000/svg" viewBox="0 0 200 200">
  <style>
    .leaf {fill: #4CAF50;}
    .pot {fill: #795548;}
    .soil {fill: #5D4037;}
  </style>
  <rect class="pot" x="70" y="140" width="60" height="50" rx="5" />
  <rect class="soil" x="70" y="140" width="60" height="10" />
  <path class="leaf" d="M100,50 C120,70 150,60 160,40 C160,80 130,100 100,90 C70,100 40,80 40,40 C50,60 80,70 100,50 Z" />
  <path class="leaf" d="M100,70 C130,80 150,70 150,50 C150,90 120,100 100,95 C80,100 50,90 50,50 C50,70 70,80 100,70 Z" />
  <path class="leaf" d="M100,90 C120,100 140,90 140,70 C140,110 120,120 100,115 C80,120 60,110 60,70 C60,90 80,100 100,90 Z" />
  <path class="leaf" d="M100,110 C110,120 130,110 130,90 C130,120 110,130 100,125 C90,130 70,120 70,90 C70,110 90,120 100,110 Z" />
  <line x1="100" y1="125" x2="100" y2="140" stroke="#5D4037" stroke-width="4" />
</svg>